<svg xmlns="http://www.w3.org/2000/svg" width="415.556" height="896" viewBox="0 0 415.556 896">
  <g id="register_page_background" transform="translate(-0.444)">
    <g id="Group_1037" data-name="Group 1037" transform="translate(1)">
      <rect id="Rectangle_242" data-name="Rectangle 242" width="415" height="896" fill="#fff"/>
      <path id="Path_243" data-name="Path 243" d="M0,893.39S255.774,686.315,273.8,605.961,7.067,482.432,40.709,435.658s331.5-186.59,373.545-262.024c.249-16.432.532-166.408,0-173.528C247.886,2.235.612,0,.612,0V95Z" transform="translate(414 896) rotate(180)" fill="#95ceae"/>
      <g id="Group_1033" data-name="Group 1033" transform="translate(159.502 145.544)">
        <path id="Rectangle_142" data-name="Rectangle 142" d="M4.9,4.9V87.112H40.945V4.9H4.9M4.9,0H40.945a4.9,4.9,0,0,1,4.9,4.9V87.112a4.9,4.9,0,0,1-4.9,4.9H4.9a4.9,4.9,0,0,1-4.9-4.9V4.9A4.9,4.9,0,0,1,4.9,0Z" transform="translate(51.741 0)" fill="#008a3c"/>
        <path id="Rectangle_143" data-name="Rectangle 143" d="M4.9,4.9V87.112H40.945V4.9H4.9M4.9,0H40.945a4.9,4.9,0,0,1,4.9,4.9V87.112a4.9,4.9,0,0,1-4.9,4.9H4.9a4.9,4.9,0,0,1-4.9-4.9V4.9A4.9,4.9,0,0,1,4.9,0Z" transform="translate(0 0)" fill="#95ceae"/>
        <path id="Icon_awesome-equals" data-name="Icon awesome-equals" d="M44.053,28.207H3.389A3.389,3.389,0,0,0,0,31.6v3.389a3.389,3.389,0,0,0,3.389,3.389H44.053a3.389,3.389,0,0,0,3.389-3.389V31.6A3.389,3.389,0,0,0,44.053,28.207Zm0-20.332H3.389A3.389,3.389,0,0,0,0,11.264v3.389a3.389,3.389,0,0,0,3.389,3.389H44.053a3.389,3.389,0,0,0,3.389-3.389V11.264A3.389,3.389,0,0,0,44.053,7.875Z" transform="translate(24.904 34.746)" fill="#008a3c"/>
      </g>
      <g id="login_image" transform="translate(186.15 264.181)">
        <path id="Icon_awesome-long-arrow-alt-right" data-name="Icon awesome-long-arrow-alt-right" d="M17.934,14.263H.686A.686.686,0,0,0,0,14.948v3.2a.686.686,0,0,0,.686.686H17.934v2.631a1.371,1.371,0,0,0,2.34.969l4.916-4.916a1.371,1.371,0,0,0,0-1.939l-4.916-4.916a1.371,1.371,0,0,0-2.34.969Z" transform="translate(0 -2.979)" fill="#008a3c"/>
        <path id="Path_231" data-name="Path 231" d="M-1579.651-133.489h-17.855v-4h17.855a.983.983,0,0,0,.344-.045.883.883,0,0,0,.069-.329l-.013-.1.01-.027v-22.165a.791.791,0,0,0-.062-.389.555.555,0,0,0-.24-.08h-17.735v-4h17.781a4.552,4.552,0,0,1,2.087.553,4.205,4.205,0,0,1,2.17,3.916v22.111a4.6,4.6,0,0,1-1.138,3.243A4.284,4.284,0,0,1-1579.651-133.489Z" transform="translate(1611 162.628)" fill="#008a3c"/>
      </g>
    </g>
    <path id="Intersection_8" data-name="Intersection 8" d="M0,49.405c1.221-1.624,2.466-3.253,3.747-4.9H32.122v-14H19.465A3.388,3.388,0,0,1,16.5,28.751q3.51-4.173,7.208-8.419h8.413v-9.5Q36.962,5.454,42.037,0H60.129a3.39,3.39,0,0,1,3.389,3.388V6.777a3.39,3.39,0,0,1-3.389,3.388h-23.1V20.332h23.1a3.39,3.39,0,0,1,3.389,3.388v3.388A3.39,3.39,0,0,1,60.129,30.5h-23.1v14a4.9,4.9,0,0,1-4.9,4.9Z" transform="translate(169.306 188.165)" fill="#008a3c"/>
  </g>
</svg>
