<svg xmlns="http://www.w3.org/2000/svg" width="83.325" height="130.32" viewBox="0 0 83.325 130.32"><g transform="translate(-287.338 -186)"><g transform="translate(230.668 -141.84)"><path d="M4.187,4.187V74.375H34.958V4.187H4.187M4.187,0H34.958a4.187,4.187,0,0,1,4.187,4.187V74.375a4.187,4.187,0,0,1-4.187,4.187H4.187A4.187,4.187,0,0,1,0,74.375V4.187A4.187,4.187,0,0,1,4.187,0Z" transform="translate(100.845 327.84)" fill="#008a3c"/><path d="M4.187,4.187V74.375H34.958V4.187H4.187M4.187,0H34.958a4.187,4.187,0,0,1,4.187,4.187V74.375a4.187,4.187,0,0,1-4.187,4.187H4.187A4.187,4.187,0,0,1,0,74.375V4.187A4.187,4.187,0,0,1,4.187,0Z" transform="translate(56.67 327.84)" fill="#95ceae"/><path d="M37.612,25.234H2.893A2.894,2.894,0,0,0,0,28.127v2.893a2.894,2.894,0,0,0,2.893,2.893H37.612A2.894,2.894,0,0,0,40.5,31.021V28.127A2.894,2.894,0,0,0,37.612,25.234Zm0-17.359H2.893A2.894,2.894,0,0,0,0,10.768v2.893a2.894,2.894,0,0,0,2.893,2.893H37.612A2.894,2.894,0,0,0,40.5,13.661V10.768A2.894,2.894,0,0,0,37.612,7.875Z" transform="translate(77.932 356.353)" fill="#008a3c"/></g><g transform="translate(62 112)"><path d="M17.934,14.263H.686A.686.686,0,0,0,0,14.948v3.2a.686.686,0,0,0,.686.686H17.934v2.631a1.371,1.371,0,0,0,2.34.969l4.916-4.916a1.371,1.371,0,0,0,0-1.939l-4.916-4.916a1.371,1.371,0,0,0-2.34.969Z" transform="translate(246 172.202)" fill="#008a3c"/><path d="M-1597.277-162.628h17.78a2.282,2.282,0,0,1,2.258,2.469v22.165a2.278,2.278,0,0,1-2.411,2.5h-17.855" transform="translate(1857 337.808)" fill="none" stroke="#008a3c" stroke-width="4"/></g></g></svg>