<svg xmlns="http://www.w3.org/2000/svg" width="261.324" height="146" viewBox="0 0 261.324 146"><g transform="translate(-79 -175)"><g transform="translate(200.33 -152.84)"><path d="M4.187,4.187V74.375H34.958V4.187H4.187M4.187,0H34.958a4.187,4.187,0,0,1,4.187,4.187V74.375a4.187,4.187,0,0,1-4.187,4.187H4.187A4.187,4.187,0,0,1,0,74.375V4.187A4.187,4.187,0,0,1,4.187,0Z" transform="translate(100.845 327.84)" fill="#008a3c"/><path d="M4.187,4.187V74.375H34.958V4.187H4.187M4.187,0H34.958a4.187,4.187,0,0,1,4.187,4.187V74.375a4.187,4.187,0,0,1-4.187,4.187H4.187A4.187,4.187,0,0,1,0,74.375V4.187A4.187,4.187,0,0,1,4.187,0Z" transform="translate(56.67 327.84)" fill="#95ceae"/><path d="M37.612,25.234H2.893A2.894,2.894,0,0,0,0,28.127v2.893a2.894,2.894,0,0,0,2.893,2.893H37.612A2.894,2.894,0,0,0,40.5,31.021V28.127A2.894,2.894,0,0,0,37.612,25.234Zm0-17.359H2.893A2.894,2.894,0,0,0,0,10.768v2.893a2.894,2.894,0,0,0,2.893,2.893H37.612A2.894,2.894,0,0,0,40.5,13.661V10.768A2.894,2.894,0,0,0,37.612,7.875Z" transform="translate(77.932 356.353)" fill="#008a3c"/></g><text transform="translate(280 291)" fill="#008a3c" font-size="24" font-family="SegoeUI, Segoe UI"><tspan x="0" y="0">وفق</tspan><tspan y="0"> </tspan></text><text transform="translate(79 291)" fill="#008a3c" font-size="24" font-family="SegoeUI, Segoe UI"><tspan x="0" y="0">وماتتعبش نفسك</tspan></text><text transform="translate(248 312)" fill="#008a3c" font-size="36" font-family="SegoeUI, Segoe UI"><tspan x="0" y="0">X</tspan></text><text transform="translate(251 312)" fill="#008a3c" font-size="36" font-family="SegoeUI, Segoe UI"><tspan x="0" y="0">X</tspan></text><text transform="translate(255 312)" fill="#008a3c" font-size="36" font-family="SegoeUI, Segoe UI"><tspan x="0" y="0">X</tspan></text></g></svg>