<svg xmlns="http://www.w3.org/2000/svg" width="47.725" height="45.002" viewBox="0 0 47.725 45.002">
  <g id="app_logo" transform="translate(-56.67 -327.84)">
    <path id="Rectangle_142" data-name="Rectangle 142" d="M2.4,2.4V42.6H20.023V2.4H2.4M2.4,0H20.023a2.4,2.4,0,0,1,2.4,2.4V42.6a2.4,2.4,0,0,1-2.4,2.4H2.4A2.4,2.4,0,0,1,0,42.6V2.4A2.4,2.4,0,0,1,2.4,0Z" transform="translate(81.972 327.84)" fill="#008a3c"/>
    <path id="Rectangle_143" data-name="Rectangle 143" d="M2.4,2.4V42.6H20.023V2.4H2.4M2.4,0H20.023a2.4,2.4,0,0,1,2.4,2.4V42.6a2.4,2.4,0,0,1-2.4,2.4H2.4A2.4,2.4,0,0,1,0,42.6V2.4A2.4,2.4,0,0,1,2.4,0Z" transform="translate(56.67 327.84)" fill="#95ceae"/>
    <path id="Icon_awesome-equals" data-name="Icon awesome-equals" d="M21.542,17.818H1.657A1.657,1.657,0,0,0,0,19.475v1.657a1.657,1.657,0,0,0,1.657,1.657H21.542A1.657,1.657,0,0,0,23.2,21.132V19.475A1.657,1.657,0,0,0,21.542,17.818Zm0-9.943H1.657A1.657,1.657,0,0,0,0,9.532v1.657a1.657,1.657,0,0,0,1.657,1.657H21.542A1.657,1.657,0,0,0,23.2,11.189V9.532A1.657,1.657,0,0,0,21.542,7.875Z" transform="translate(68.848 340.807)" fill="#008a3c"/>
  </g>
</svg>
