<svg xmlns="http://www.w3.org/2000/svg" width="23.599" height="28.981" viewBox="0 0 23.599 28.981">
  <path id="apple_logo" d="M25.145,17.327a6.557,6.557,0,0,1,3.129-5.518,6.768,6.768,0,0,0-5.3-2.872c-2.257-.229-4.4,1.329-5.549,1.329S14.515,8.971,12.644,9a7.091,7.091,0,0,0-5.995,3.633c-2.556,4.435-.655,11,1.837,14.6C9.7,29,11.154,30.978,13.06,30.908c1.835-.073,2.529-1.187,4.748-1.187s2.842,1.187,4.784,1.151c1.975-.037,3.226-1.794,4.435-3.56a15.975,15.975,0,0,0,2.007-4.122,6.4,6.4,0,0,1-3.889-5.862ZM21.5,6.556A6.387,6.387,0,0,0,23,1.928a6.5,6.5,0,0,0-4.268,2.195A6.076,6.076,0,0,0,17.2,8.607,5.375,5.375,0,0,0,21.5,6.556Z" transform="translate(-5.436 -1.928)" fill="#fff"/>
</svg>
