<svg xmlns="http://www.w3.org/2000/svg" width="84" height="20.881" viewBox="0 0 84 20.881">
  <g id="honor_logo" transform="translate(-1112.999 -834)">
    <g id="Group_16" data-name="Group 16" transform="translate(1112.999 834)">
      <path id="Subtraction_14" data-name="Subtraction 14" d="M12.48,13.92H3.36A3.36,3.36,0,0,1,0,10.56V3.36A3.36,3.36,0,0,1,3.36,0h9.12a3.36,3.36,0,0,1,3.36,3.36v7.2a3.36,3.36,0,0,1-3.36,3.36ZM3.12,2.64a.48.48,0,0,0-.48.48V10.8a.48.48,0,0,0,.48.48h9.6a.48.48,0,0,0,.48-.48V3.12a.48.48,0,0,0-.48-.48Z" transform="translate(17.52 6.96)" fill="#fff"/>
      <path id="Subtraction_19" data-name="Subtraction 19" d="M12.48,13.92H3.36A3.36,3.36,0,0,1,0,10.56V3.36A3.36,3.36,0,0,1,3.36,0h9.12a3.36,3.36,0,0,1,3.36,3.36v7.2a3.36,3.36,0,0,1-3.36,3.36ZM3.12,2.64a.48.48,0,0,0-.48.48V10.8a.48.48,0,0,0,.48.48h9.6a.48.48,0,0,0,.48-.48V3.12a.48.48,0,0,0-.48-.48Z" transform="translate(53.28 6.96)" fill="#fff"/>
      <path id="Union_3" data-name="Union 3" d="M0,12.589V1.305Q0,1.253,0,1.2A1.2,1.2,0,0,1,1.2,0h9.6a1.2,1.2,0,0,1,0,2.4H2.4V12.589A1.149,1.149,0,0,1,1.2,13.68,1.149,1.149,0,0,1,0,12.589Z" transform="translate(72 7.2)" fill="#fff"/>
      <path id="Union_4" data-name="Union 4" d="M.005,13.472V1.4Q0,1.344,0,1.284A1.284,1.284,0,0,1,1.284,0H12.4a1.284,1.284,0,1,1,0,2.568H2.741v10.9A1.28,1.28,0,0,1,1.373,14.64,1.28,1.28,0,0,1,.005,13.472Z" transform="translate(50.76 7.2) rotate(90)" fill="#fff"/>
      <g id="Group_14" data-name="Group 14" transform="translate(0 7.2)">
        <rect id="Rectangle_42" data-name="Rectangle 42" width="13.68" height="2.568" rx="1.284" transform="translate(14.64) rotate(90)" fill="#fff"/>
        <path id="Path_18" data-name="Path 18" d="M.23,0H12.425a1.28,1.28,0,0,1,1.168,1.368,1.28,1.28,0,0,1-1.168,1.368H.23C-.415,2.736.5,1.817.5,1.061S-.415,0,.23,0Z" transform="translate(13.592 2.741) rotate(180)" fill="#fff"/>
      </g>
      <g id="Group_15" data-name="Group 15" transform="translate(14.64 9.84) rotate(180)">
        <rect id="Rectangle_42-2" data-name="Rectangle 42" width="9.84" height="2.568" rx="1.284" transform="translate(14.64) rotate(90)" fill="#fff"/>
        <path id="Path_18-2" data-name="Path 18" d="M.23,0H12.425a1.28,1.28,0,0,1,1.168,1.368,1.28,1.28,0,0,1-1.168,1.368H.23C-.415,2.736.5,1.817.5,1.061S-.415,0,.23,0Z" transform="translate(13.592 2.741) rotate(180)" fill="#fff"/>
      </g>
      <path id="Line_3" data-name="Line 3" d="M-3.8,5.08A1.2,1.2,0,0,1-5,3.88V-3.8A1.2,1.2,0,0,1-3.8-5,1.2,1.2,0,0,1-2.6-3.8V3.88A1.2,1.2,0,0,1-3.8,5.08Z" transform="translate(41.12 15.68)" fill="#fff"/>
      <path id="Line_4" data-name="Line 4" d="M-3.8,5.08A1.2,1.2,0,0,1-5,3.88V-3.8A1.2,1.2,0,0,1-3.8-5,1.2,1.2,0,0,1-2.6-3.8V3.88A1.2,1.2,0,0,1-3.8,5.08Z" transform="translate(5 15.68)" fill="#fff"/>
    </g>
  </g>
</svg>
