<svg xmlns="http://www.w3.org/2000/svg" width="90.896" height="22.599" viewBox="0 0 90.896 22.599">
  <g id="huawei_logo" transform="translate(-23 -439.701)">
    <path id="Icon_simple-huawei" data-name="Icon simple-huawei" d="M4.587,8.415s-2.312,2.212-2.437,4.55V13.4a4.388,4.388,0,0,0,1.525,3c2.287,2.237,7.825,5.05,9.124,5.687a.115.115,0,0,0,.125-.012l.025-.05v-.05A68.815,68.815,0,0,0,4.587,8.415Zm7.475,15.574a.132.132,0,0,0-.125-.1l-9.224.325c1,1.787,2.687,3.162,4.45,2.75a23.981,23.981,0,0,0,4.85-2.875c.075-.062.05-.112.05-.112Zm.1-.975c-4.05-2.737-11.9-6.925-11.9-6.925A5.635,5.635,0,0,0,0,17.714V17.8a5.261,5.261,0,0,0,.5,2.275,5.472,5.472,0,0,0,2.925,2.75,5.169,5.169,0,0,0,1.75.387c.15.025,5.5,0,6.925,0a.132.132,0,0,0,.1-.062v-.075A.086.086,0,0,0,12.162,23.014ZM11.324,4.727A4.275,4.275,0,0,0,8.112,8.665v.512a6.382,6.382,0,0,0,.2,1.312C9.137,14.114,13.137,20.052,14,21.3a.12.12,0,0,0,.125.037.125.125,0,0,0,.075-.125C15.524,7.965,12.812,4.44,12.812,4.44a14.33,14.33,0,0,0-1.487.287ZM21.7,7.565a4.313,4.313,0,0,0-3.05-2.85s-.712-.175-1.462-.275c0,0-2.725,3.512-1.4,16.787a.108.108,0,0,0,.075.1.092.092,0,0,0,.125-.037c.9-1.287,4.875-7.2,5.687-10.8A6.062,6.062,0,0,0,21.7,7.565ZM18.049,23.9s-.087,0-.112.062c0,0-.012.087.037.125a24.354,24.354,0,0,0,4.85,2.875,2.257,2.257,0,0,0,.537.075h.175c.862-.025,2.375-.462,3.75-2.825L18.036,23.9Zm9.787-10.512c.175-2.575-2.425-4.962-2.425-4.975a68.7,68.7,0,0,0-8.337,13.5.166.166,0,0,0,.025.162l.05.012h.075c1.325-.662,6.825-3.462,9.1-5.675a4.461,4.461,0,0,0,1.512-3.025Zm1.9,2.675s-7.85,4.212-11.9,6.937a.132.132,0,0,0-.037.137s.037.075.087.075c1.45,0,6.95,0,7.087-.025a5.415,5.415,0,0,0,4.55-3.2A5.551,5.551,0,0,0,29.736,16.064Z" transform="translate(23 435.261)" fill="#fff"/>
    <g id="Group_995" data-name="Group 995" transform="translate(-51.922 8.425)">
      <path id="Subtraction_56" data-name="Subtraction 56" d="M-468.848,24.235a3.535,3.535,0,0,1-2.713-.977,4.2,4.2,0,0,1-.9-2.931V15.2h2.008v5.153c0,1.43.567,2.155,1.685,2.155,1.1,0,1.654-.7,1.654-2.081V15.2h2v5.035a4.279,4.279,0,0,1-.932,3,3.659,3.659,0,0,1-2.8,1Zm-11.23-.155h-2V15.2h2v3.541h3.679V15.2h2.008v8.88H-476.4V20.462h-3.679Zm28.864,0h-2.31l-2.335-8.88h2.186l1.251,5.916a7.059,7.059,0,0,1,.118,1.015h.037a4.951,4.951,0,0,1,.18-1.041l1.611-5.89h2.143l1.456,5.965a7.337,7.337,0,0,1,.143.951h.025a6.348,6.348,0,0,1,.13-.991l1.225-5.925h2.019l-2.346,8.88h-2.22l-1.47-5.7a4.778,4.778,0,0,1-.143-1h-.025a6.1,6.1,0,0,1-.159,1Zm-11.038,0h-2.167l3.233-8.88h2.372l3.159,8.88h-2.18l-.634-1.976h-3.159Zm2.174-7.3h0a3.412,3.412,0,0,1-.155.774l-.966,3.013h2.273l-.954-2.985a3.939,3.939,0,0,1-.149-.8h-.05Z" transform="translate(595 423.906)" fill="#fff"/>
      <path id="Path_218" data-name="Path 218" d="M8.627,9.14h-4.5A4.365,4.365,0,0,1,0,4.57,4.365,4.365,0,0,1,4.126,0h4.5V1.662H4.874A2.68,2.68,0,0,0,2.358,3.739H8.627V5.4H2.359A2.68,2.68,0,0,0,4.875,7.478H8.628V9.14Z" transform="translate(152.587 439)" fill="#fff"/>
      <rect id="Rectangle_194" data-name="Rectangle 194" width="2.114" height="8.985" transform="translate(163.704 439)" fill="#fff"/>
    </g>
  </g>
</svg>
