<svg xmlns="http://www.w3.org/2000/svg" width="80.663" height="17.141" viewBox="0 0 80.663 17.141">
  <g id="infinix_logo" transform="translate(-1296 -665)">
    <path id="Union_1" data-name="Union 1" d="M15.32,12.792H12.495V5.382A2.553,2.553,0,0,0,11.967,3.8a2.214,2.214,0,0,0-1.733-.884h-4.9A2.376,2.376,0,0,0,3.07,5.382v7.41H0V0H3.07V.553A4.442,4.442,0,0,1,3.677.512h7.967a4.047,4.047,0,0,1,2.6.9A2.82,2.82,0,0,1,15.32,3.582v9.21h0Z" transform="translate(1301.884 669.349)" fill="#fff"/>
    <path id="Union_2" data-name="Union 2" d="M15.32,12.792H12.495V5.382A2.553,2.553,0,0,0,11.967,3.8a2.214,2.214,0,0,0-1.733-.884h-4.9A2.376,2.376,0,0,0,3.07,5.382v7.41H0V0H3.07V.553A4.442,4.442,0,0,1,3.677.512h7.967a4.047,4.047,0,0,1,2.6.9A2.82,2.82,0,0,1,15.32,3.582v9.21h0Z" transform="translate(1337.19 669.349)" fill="#fff"/>
    <path id="Path_10" data-name="Path 10" d="M1385.177,682.526V673.25h4.344v-2.558h-4.515v-1.505s-.1-.8.953-.778,3.562,0,3.562,0v-2.282h-4.344s-2.679.051-2.654,2.558c.026.026,0,2.007,0,2.007h-4.089l1.756,2.433h2.182l-.1,9.4Z" transform="translate(-61.344 -0.838)" fill="#fff"/>
    <path id="Path_11" data-name="Path 11" d="M1564.667,683.97h-3.641l-12.387,11.965h3.565Z" transform="translate(-188.004 -14.117)" fill="#fff"/>
    <path id="Path_12" data-name="Path 12" d="M1548.64,683.97h3.642l12.387,11.965H1561.1Z" transform="translate(-188.005 -14.117)" fill="#fff"/>
    <g id="Group_11" data-name="Group 11" transform="translate(1355.354 665)">
      <rect id="Rectangle_26" data-name="Rectangle 26" width="3.07" height="12.28" transform="translate(0 4.861)" fill="#fff"/>
      <rect id="Rectangle_27" data-name="Rectangle 27" width="3.07" height="2.558" transform="translate(0 0)" fill="#fff"/>
    </g>
    <g id="Group_12" data-name="Group 12" transform="translate(1330.794 665)">
      <rect id="Rectangle_26-2" data-name="Rectangle 26" width="3.07" height="12.28" transform="translate(0 4.861)" fill="#fff"/>
      <rect id="Rectangle_27-2" data-name="Rectangle 27" width="3.07" height="2.558" transform="translate(0 0)" fill="#fff"/>
    </g>
    <rect id="Rectangle_28" data-name="Rectangle 28" width="3.07" height="15.862" transform="translate(1296 666.279)" fill="#fff"/>
  </g>
</svg>
