<svg xmlns="http://www.w3.org/2000/svg" width="66" height="14.898" viewBox="0 0 66 14.898">
  <g id="nokia_logo" transform="translate(-1850 -962.998)">
    <rect id="Rectangle_44" data-name="Rectangle 44" width="3.06" height="10.292" transform="translate(1861.961 965.224)" fill="#fff"/>
    <rect id="Rectangle_52" data-name="Rectangle 52" width="3.06" height="10.292" transform="translate(1881.71 965.224)" fill="#fff"/>
    <rect id="Rectangle_53" data-name="Rectangle 53" width="3.06" height="10.292" transform="translate(1896.453 965.224)" fill="#fff"/>
    <rect id="Rectangle_49" data-name="Rectangle 49" width="3.657" height="10.317" transform="matrix(0.766, -0.643, 0.643, 0.766, 1852.761, 967.575)" fill="#fff"/>
    <path id="Path_21" data-name="Path 21" d="M.347.218,3.059,0l.058,11.454L0,9.654Z" transform="translate(1907.573 967.073) rotate(-30)" fill="#fff"/>
    <path id="Path_22" data-name="Path 22" d="M.347,11.236l2.832.157L3.118,0,0,1.8Z" transform="translate(1903.041 976.992) rotate(-150)" fill="#fff"/>
    <path id="Path_19" data-name="Path 19" d="M0,0,2.559.353l.755,11.14L.122,8.188Z" transform="matrix(0.695, -0.719, 0.719, 0.695, 1884.879, 969.908)" fill="#fff"/>
    <path id="Path_20" data-name="Path 20" d="M0,10.261,2.34,9.95,2.927,0,.111,3.029Z" transform="translate(1892.782 962.998) rotate(48)" fill="#fff"/>
    <rect id="Rectangle_46" data-name="Rectangle 46" width="3.06" height="10.292" transform="translate(1850 965.224)" fill="#fff"/>
    <rect id="Rectangle_47" data-name="Rectangle 47" width="2.503" height="4.729" transform="translate(1850.834 967.727) rotate(-90)" fill="#fff"/>
    <rect id="Rectangle_48" data-name="Rectangle 48" width="2.503" height="5.007" transform="translate(1859.457 975.516) rotate(-90)" fill="#fff"/>
    <rect id="Rectangle_45" data-name="Rectangle 45" width="0.278" height="0.278" transform="translate(1871.14 977.463)" fill="#fff"/>
    <path id="Rectangle_45_-_Outline" data-name="Rectangle 45 - Outline" d="M0,0H.278V.278H0Z" transform="translate(1871.14 977.463)" fill="#fff"/>
    <path id="Subtraction_20" data-name="Subtraction 20" d="M11.126,10.292H2.5A2.506,2.506,0,0,1,0,7.788V2.5A2.506,2.506,0,0,1,2.5,0h8.623a2.506,2.506,0,0,1,2.5,2.5V7.788a2.506,2.506,0,0,1-2.5,2.5ZM3.06,2.5a.278.278,0,0,0-.278.278V7.51a.278.278,0,0,0,.278.278h7.51a.278.278,0,0,0,.278-.278V2.782A.278.278,0,0,0,10.57,2.5Z" transform="translate(1866.411 965.224)" fill="#fff"/>
    <rect id="Rectangle_54" data-name="Rectangle 54" width="7.788" height="1.947" transform="translate(1903.963 971.622)" fill="#fff"/>
    <path id="Path_23" data-name="Path 23" d="M.078.109H4.306l.144,1.639H0Z" transform="translate(1905.91 965.423)" fill="#fff"/>
  </g>
</svg>
