<svg xmlns="http://www.w3.org/2000/svg" width="88.392" height="21.703" viewBox="0 0 88.392 21.703">
  <g id="oppo_logo" transform="translate(-30 -396)">
    <path id="Subtraction_7" data-name="Subtraction 7" d="M10.851,16.406A12.751,12.751,0,0,1,3.176,14,7.309,7.309,0,0,1,0,8.2,7.31,7.31,0,0,1,3.176,2.4,12.75,12.75,0,0,1,10.851,0a12.75,12.75,0,0,1,7.675,2.4A7.3,7.3,0,0,1,21.7,8.2,7.309,7.309,0,0,1,18.525,14,12.751,12.751,0,0,1,10.851,16.406Zm.265-13.762c-4.086,0-7.41,2.493-7.41,5.558s3.324,5.558,7.41,5.558,7.41-2.493,7.41-5.558S15.2,2.645,11.115,2.645Z" transform="translate(30 396.004)" fill="#fff"/>
    <path id="Subtraction_8" data-name="Subtraction 8" d="M10.851,16.406A12.751,12.751,0,0,1,3.176,14,7.309,7.309,0,0,1,0,8.2,7.31,7.31,0,0,1,3.176,2.4,12.75,12.75,0,0,1,10.851,0a12.75,12.75,0,0,1,7.675,2.4A7.3,7.3,0,0,1,21.7,8.2,7.309,7.309,0,0,1,18.525,14,12.751,12.751,0,0,1,10.851,16.406Zm.265-13.762c-4.086,0-7.41,2.493-7.41,5.558s3.324,5.558,7.41,5.558,7.41-2.493,7.41-5.558S15.2,2.645,11.115,2.645Z" transform="translate(96.691 396.004)" fill="#fff"/>
    <g id="Group_2" data-name="Group 2" transform="translate(52.76 396)">
      <path id="Subtraction_10" data-name="Subtraction 10" d="M10.586,16.407A12.233,12.233,0,0,1,3.1,14,7.356,7.356,0,0,1,0,8.2,7.357,7.357,0,0,1,3.1,2.4,12.232,12.232,0,0,1,10.586,0a12.232,12.232,0,0,1,7.485,2.4,7.357,7.357,0,0,1,3.1,5.8,7.356,7.356,0,0,1-3.1,5.8,12.233,12.233,0,0,1-7.485,2.4Zm.258-13.762c-3.986,0-7.229,2.493-7.229,5.558s3.243,5.558,7.23,5.558,7.23-2.493,7.23-5.558-3.244-5.558-7.23-5.558Z" transform="translate(0 0.003)" fill="#fff"/>
      <rect id="Rectangle_12" data-name="Rectangle 12" width="3" height="21" transform="translate(0.24 0.703)" fill="#fff"/>
    </g>
    <g id="Group_3" data-name="Group 3" transform="translate(74.99 396)">
      <path id="Subtraction_10-2" data-name="Subtraction 10" d="M10.586,16.407A12.233,12.233,0,0,1,3.1,14,7.356,7.356,0,0,1,0,8.2,7.357,7.357,0,0,1,3.1,2.4,12.232,12.232,0,0,1,10.586,0a12.232,12.232,0,0,1,7.485,2.4,7.357,7.357,0,0,1,3.1,5.8,7.356,7.356,0,0,1-3.1,5.8,12.233,12.233,0,0,1-7.485,2.4Zm.258-13.762c-3.986,0-7.229,2.493-7.229,5.558s3.243,5.558,7.23,5.558,7.23-2.493,7.23-5.558-3.244-5.558-7.23-5.558Z" transform="translate(0 0.003)" fill="#fff"/>
      <rect id="Rectangle_12-2" data-name="Rectangle 12" width="4" height="21" transform="translate(0.01 0.703)" fill="#fff"/>
    </g>
  </g>
</svg>
