<svg xmlns="http://www.w3.org/2000/svg" width="102" height="15.751" viewBox="0 0 102 15.751">
  <path id="samsung_logo" d="M84.221,15.741l.2,11.567h-.1L81.006,15.741H75.55V30.311h3.6L78.96,18.35h.1l3.556,11.96h5.212V15.741Zm-68.633,0L12.86,30.459h3.946l2-13.388h.1l1.949,13.388h3.9L22.066,15.741Zm22.017,0L35.8,26.964h-.1L33.9,15.741H27.96l-.292,14.717h3.653l.1-13.241h.048L33.9,30.458h3.7l2.436-13.24h.1l.1,13.24h3.653l-.341-14.717ZM6.722,26.275a2.086,2.086,0,0,1,.048,1.083c-.1.492-.438.984-1.413.984A1.3,1.3,0,0,1,3.9,27.013V25.586H0v1.132C0,30.016,2.581,31,5.31,31c2.63,0,4.822-.935,5.163-3.347a7.284,7.284,0,0,0,0-2.412c-.682-3.1-6.235-3.987-6.625-5.71a2.134,2.134,0,0,1,0-.788,1.189,1.189,0,0,1,1.315-.984,1.248,1.248,0,0,1,1.364,1.329v.886H10.18V18.941c0-3.2-2.874-3.692-4.92-3.692-2.581,0-4.725.886-5.114,3.248a4.508,4.508,0,0,0,.048,1.969c.585,3.052,5.8,3.938,6.527,5.808m47.4,0a2.075,2.075,0,0,1,.048,1.083c-.1.492-.439.984-1.413.984a1.3,1.3,0,0,1-1.461-1.329V25.586H47.4v1.132c0,3.248,2.533,4.233,5.261,4.233,2.63,0,4.774-.886,5.114-3.347a7.33,7.33,0,0,0,0-2.412c-.584-3.052-6.089-3.987-6.478-5.66a2.118,2.118,0,0,1,0-.788,1.189,1.189,0,0,1,1.315-.984,1.273,1.273,0,0,1,1.364,1.329v.886h3.6V18.941c0-3.2-2.825-3.692-4.87-3.692-2.582,0-4.677.837-5.066,3.248a5.393,5.393,0,0,0,.048,1.969c.585,3.052,5.7,3.888,6.43,5.808m12.275,1.969A1.33,1.33,0,0,0,67.8,27.161a2.031,2.031,0,0,0,.049-.541V15.741h3.7V26.324a5.757,5.757,0,0,1-.048.984c-.244,2.757-2.387,3.643-5.066,3.643s-4.822-.886-5.066-3.643c0-.148-.048-.689-.048-.984V15.741h3.7V26.62a1.857,1.857,0,0,0,.049.541,1.154,1.154,0,0,0,1.315,1.083m30.4-.148a1.412,1.412,0,0,0,1.51-1.083,2.031,2.031,0,0,0,.049-.541V24.355h-1.51V22.189H102v3.938a8.112,8.112,0,0,1-.049.984c-.244,2.707-2.533,3.642-5.114,3.642s-4.871-.935-5.114-3.642a8.116,8.116,0,0,1-.049-.985v-6.2c0-.247.049-.739.049-.985.341-2.757,2.533-3.643,5.114-3.643s4.822.886,5.114,3.643c.049.443.049.984.049.984v.492H98.347v-.837a2.944,2.944,0,0,0-.049-.542,1.312,1.312,0,0,0-1.461-1.083,1.35,1.35,0,0,0-1.461,1.083,3.049,3.049,0,0,0-.049.689v6.743a1.857,1.857,0,0,0,.049.541A1.258,1.258,0,0,0,96.788,28.1" transform="translate(0 -15.249)" fill="#fff"/>
</svg>
