<svg xmlns="http://www.w3.org/2000/svg" width="78" height="20.601" viewBox="0 0 78 20.601">
  <g id="vivo_logo" transform="translate(-1004.783 -235)">
    <rect id="Rectangle_16" data-name="Rectangle 16" width="3.344" height="14.255" rx="1.672" transform="translate(1030.692 241.346)" fill="#fff"/>
    <rect id="Rectangle_17" data-name="Rectangle 17" width="3.601" height="3.601" rx="1.801" transform="translate(1029.818 237.547) rotate(-45)" fill="#fff"/>
    <path id="Subtraction_11" data-name="Subtraction 11" d="M15.147,15.135H7.58A7.568,7.568,0,1,1,7.58,0h7.568a7.568,7.568,0,1,1,0,15.135ZM7.844,3.52a4.136,4.136,0,1,0,0,8.272h7.04a4.136,4.136,0,1,0,0-8.272Z" transform="translate(1060.071 240.466)" fill="#fff"/>
    <path id="Path_4" data-name="Path 4" d="M1008.547,153.716l-3.764.184,8.587,12.826a4.343,4.343,0,0,0,6.057-.09c.022,0,8.569-12.737,8.569-12.737l-3.7-.184-7.028,10.536a1.094,1.094,0,0,1-1.808,0Z" transform="translate(0 87.655)" fill="#fff"/>
    <path id="Path_5" data-name="Path 5" d="M1008.547,153.716l-3.764.184,8.587,12.826a4.343,4.343,0,0,0,6.057-.09c.022,0,8.569-12.737,8.569-12.737l-3.7-.184-7.028,10.536a1.094,1.094,0,0,1-1.808,0Z" transform="translate(32.087 87.655)" fill="#fff"/>
  </g>
</svg>
