<svg xmlns="http://www.w3.org/2000/svg" width="30" height="32" viewBox="0 0 30 32">
  <g id="mobile_specifications_icon" transform="translate(-239 -281.5)">
    <path id="Rectangle_218" data-name="Rectangle 218" d="M6,1A5.006,5.006,0,0,0,1,6V29a2,2,0,0,0,2,2H27a2,2,0,0,0,2-2V3a2,2,0,0,0-2-2H6M6,0H27a3,3,0,0,1,3,3V29a3,3,0,0,1-3,3H3a3,3,0,0,1-3-3V6A6,6,0,0,1,6,0Z" transform="translate(239 281.5)" fill="#fff"/>
    <path id="Line_36" data-name="Line 36" d="M19,1.5H0A1.5,1.5,0,0,1-1.5,0,1.5,1.5,0,0,1,0-1.5H19A1.5,1.5,0,0,1,20.5,0,1.5,1.5,0,0,1,19,1.5Z" transform="translate(244.5 287.5)" fill="#fff"/>
    <path id="Line_37" data-name="Line 37" d="M12,1.5H0A1.5,1.5,0,0,1-1.5,0,1.5,1.5,0,0,1,0-1.5H12A1.5,1.5,0,0,1,13.5,0,1.5,1.5,0,0,1,12,1.5Z" transform="translate(251.5 294.5)" fill="#fff"/>
    <path id="Line_38" data-name="Line 38" d="M19,1.5H0A1.5,1.5,0,0,1-1.5,0,1.5,1.5,0,0,1,0-1.5H19A1.5,1.5,0,0,1,20.5,0,1.5,1.5,0,0,1,19,1.5Z" transform="translate(244.5 301.5)" fill="#fff"/>
    <path id="Line_39" data-name="Line 39" d="M15,1.5H0A1.5,1.5,0,0,1-1.5,0,1.5,1.5,0,0,1,0-1.5H15A1.5,1.5,0,0,1,16.5,0,1.5,1.5,0,0,1,15,1.5Z" transform="translate(248.5 308.5)" fill="#fff"/>
  </g>
</svg>
